<svg viewBox="0 0 330 200" xmlns="http://www.w3.org/2000/svg"><g><g><g><g><g><line x1="61.77000045776367" y1="177.9699993133545" x2="56.77000045776367" y2="177.9699993133545" style="visibility: inherit;" fill="rgb(0, 0, 0)" stroke="rgb(204, 204, 204)" stroke-width="1px"></line><line x1="61.77000045776367" y1="158.19555494520398" x2="56.77000045776367" y2="158.19555494520398" style="visibility: inherit;" fill="rgb(0, 0, 0)" stroke="rgb(204, 204, 204)" stroke-width="1px"></line><line x1="61.77000045776367" y1="138.4211105770535" x2="56.77000045776367" y2="138.4211105770535" style="visibility: inherit;" fill="rgb(0, 0, 0)" stroke="rgb(204, 204, 204)" stroke-width="1px"></line><line x1="61.77000045776367" y1="118.64666620890301" x2="56.77000045776367" y2="118.64666620890301" style="visibility: inherit;" fill="rgb(0, 0, 0)" stroke="rgb(204, 204, 204)" stroke-width="1px"></line><line x1="61.77000045776367" y1="98.8722218407525" x2="56.77000045776367" y2="98.8722218407525" style="visibility: inherit;" fill="rgb(0, 0, 0)" stroke="rgb(204, 204, 204)" stroke-width="1px"></line><line x1="61.77000045776367" y1="79.09777747260199" x2="56.77000045776367" y2="79.09777747260199" style="visibility: inherit;" fill="rgb(0, 0, 0)" stroke="rgb(204, 204, 204)" stroke-width="1px"></line><line x1="61.77000045776367" y1="59.323333104451486" x2="56.77000045776367" y2="59.323333104451486" style="visibility: inherit;" fill="rgb(0, 0, 0)" stroke="rgb(204, 204, 204)" stroke-width="1px"></line><line x1="61.77000045776367" y1="39.548888736301016" x2="56.77000045776367" y2="39.548888736301016" style="visibility: inherit;" fill="rgb(0, 0, 0)" stroke="rgb(204, 204, 204)" stroke-width="1px"></line><line x1="61.77000045776367" y1="19.774444368150487" x2="56.77000045776367" y2="19.774444368150487" style="visibility: inherit;" fill="rgb(0, 0, 0)" stroke="rgb(204, 204, 204)" stroke-width="1px"></line><line x1="61.77000045776367" y1="0" x2="56.77000045776367" y2="0" style="visibility: inherit;" fill="rgb(0, 0, 0)" stroke="rgb(204, 204, 204)" stroke-width="1px"></line></g><g transform="translate(51.77000045776367, 0)"><text style="text-anchor: end; visibility: hidden; font-family: sans-serif, Roboto; font-size: 12px; font-weight: 200;" x="0" y="177.9699993133545" dx="0em" dy="0.3em" fill="rgb(50, 49, 63)" stroke="none" stroke-width="1px">-0.01</text><text style="text-anchor: end; visibility: inherit; font-family: sans-serif, Roboto; font-size: 12px; font-weight: 200;" x="0" y="158.19555494520398" dx="0em" dy="0.3em" fill="rgb(50, 49, 63)" stroke="none" stroke-width="1px">0</text><text style="text-anchor: end; visibility: hidden; font-family: sans-serif, Roboto; font-size: 12px; font-weight: 200;" x="0" y="138.4211105770535" dx="0em" dy="0.3em" fill="rgb(50, 49, 63)" stroke="none" stroke-width="1px">0.01</text><text style="text-anchor: end; visibility: inherit; font-family: sans-serif, Roboto; font-size: 12px; font-weight: 200;" x="0" y="118.64666620890301" dx="0em" dy="0.3em" fill="rgb(50, 49, 63)" stroke="none" stroke-width="1px">0.02</text><text style="text-anchor: end; visibility: hidden; font-family: sans-serif, Roboto; font-size: 12px; font-weight: 200;" x="0" y="98.8722218407525" dx="0em" dy="0.3em" fill="rgb(50, 49, 63)" stroke="none" stroke-width="1px">0.03</text><text style="text-anchor: end; visibility: inherit; font-family: sans-serif, Roboto; font-size: 12px; font-weight: 200;" x="0" y="79.09777747260199" dx="0em" dy="0.3em" fill="rgb(50, 49, 63)" stroke="none" stroke-width="1px">0.04</text><text style="text-anchor: end; visibility: hidden; font-family: sans-serif, Roboto; font-size: 12px; font-weight: 200;" x="0" y="59.323333104451486" dx="0em" dy="0.3em" fill="rgb(50, 49, 63)" stroke="none" stroke-width="1px">0.05</text><text style="text-anchor: end; visibility: inherit; font-family: sans-serif, Roboto; font-size: 12px; font-weight: 200;" x="0" y="39.548888736301016" dx="0em" dy="0.3em" fill="rgb(50, 49, 63)" stroke="none" stroke-width="1px">0.06</text><text style="text-anchor: end; visibility: hidden; font-family: sans-serif, Roboto; font-size: 12px; font-weight: 200;" x="0" y="19.774444368150487" dx="0em" dy="0.3em" fill="rgb(50, 49, 63)" stroke="none" stroke-width="1px">0.07</text><text style="text-anchor: end; visibility: hidden; font-family: sans-serif, Roboto; font-size: 12px; font-weight: 200;" x="0" y="0" dx="0em" dy="0.3em" fill="rgb(50, 49, 63)" stroke="none" stroke-width="1px">0.08</text></g><line x1="61.77000045776367" y1="0" x2="61.77000045776367" y2="177.9699993133545" fill="rgb(0, 0, 0)" stroke="rgb(204, 204, 204)" stroke-width="1px"></line></g></g><g transform="translate(61, 0)" clip-path="url(#clip_0)"><clipPath id="clip_0"><rect width="268" height="177"></rect></clipPath><g><g><g><line x1="0" y1="0" x2="0" y2="177.9699993133545" fill="rgb(0, 0, 0)" stroke="rgb(60, 60, 60)" stroke-width="1px" opacity="0.25"></line><line x1="29.803333282470703" y1="0" x2="29.803333282470703" y2="177.9699993133545" fill="rgb(0, 0, 0)" stroke="rgb(60, 60, 60)" stroke-width="1px" opacity="0.25"></line><line x1="59.606666564941406" y1="0" x2="59.606666564941406" y2="177.9699993133545" fill="rgb(0, 0, 0)" stroke="rgb(60, 60, 60)" stroke-width="1px" opacity="0.25"></line><line x1="89.40999984741211" y1="0" x2="89.40999984741211" y2="177.9699993133545" fill="rgb(0, 0, 0)" stroke="rgb(60, 60, 60)" stroke-width="1px" opacity="0.25"></line><line x1="119.21333312988281" y1="0" x2="119.21333312988281" y2="177.9699993133545" fill="rgb(0, 0, 0)" stroke="rgb(60, 60, 60)" stroke-width="1px" opacity="0.25"></line><line x1="149.01666641235352" y1="0" x2="149.01666641235352" y2="177.9699993133545" fill="rgb(0, 0, 0)" stroke="rgb(60, 60, 60)" stroke-width="1px" opacity="0.25"></line><line x1="178.81999969482422" y1="0" x2="178.81999969482422" y2="177.9699993133545" fill="rgb(0, 0, 0)" stroke="rgb(60, 60, 60)" stroke-width="1px" opacity="0.25"></line><line x1="208.62333297729492" y1="0" x2="208.62333297729492" y2="177.9699993133545" fill="rgb(0, 0, 0)" stroke="rgb(60, 60, 60)" stroke-width="1px" opacity="0.25"></line><line x1="238.42666625976562" y1="0" x2="238.42666625976562" y2="177.9699993133545" fill="rgb(0, 0, 0)" stroke="rgb(60, 60, 60)" stroke-width="1px" opacity="0.25"></line><line x1="268.2299995422363" y1="0" x2="268.2299995422363" y2="177.9699993133545" fill="rgb(0, 0, 0)" stroke="rgb(60, 60, 60)" stroke-width="1px" opacity="0.25"></line></g><g><line x1="0" y1="177.9699993133545" x2="268.2299995422363" y2="177.9699993133545" fill="rgb(0, 0, 0)" stroke="rgb(60, 60, 60)" stroke-width="1px" opacity="0.25"></line><line x1="0" y1="158.19555494520398" x2="268.2299995422363" y2="158.19555494520398" fill="rgb(0, 0, 0)" stroke="rgb(60, 60, 60)" stroke-width="1px" opacity="0.25"></line><line x1="0" y1="138.4211105770535" x2="268.2299995422363" y2="138.4211105770535" fill="rgb(0, 0, 0)" stroke="rgb(60, 60, 60)" stroke-width="1px" opacity="0.25"></line><line x1="0" y1="118.64666620890301" x2="268.2299995422363" y2="118.64666620890301" fill="rgb(0, 0, 0)" stroke="rgb(60, 60, 60)" stroke-width="1px" opacity="0.25"></line><line x1="0" y1="98.8722218407525" x2="268.2299995422363" y2="98.8722218407525" fill="rgb(0, 0, 0)" stroke="rgb(60, 60, 60)" stroke-width="1px" opacity="0.25"></line><line x1="0" y1="79.09777747260199" x2="268.2299995422363" y2="79.09777747260199" fill="rgb(0, 0, 0)" stroke="rgb(60, 60, 60)" stroke-width="1px" opacity="0.25"></line><line x1="0" y1="59.323333104451486" x2="268.2299995422363" y2="59.323333104451486" fill="rgb(0, 0, 0)" stroke="rgb(60, 60, 60)" stroke-width="1px" opacity="0.25"></line><line x1="0" y1="39.548888736301016" x2="268.2299995422363" y2="39.548888736301016" fill="rgb(0, 0, 0)" stroke="rgb(60, 60, 60)" stroke-width="1px" opacity="0.25"></line><line x1="0" y1="19.774444368150487" x2="268.2299995422363" y2="19.774444368150487" fill="rgb(0, 0, 0)" stroke="rgb(60, 60, 60)" stroke-width="1px" opacity="0.25"></line><line x1="0" y1="0" x2="268.2299995422363" y2="0" fill="rgb(0, 0, 0)" stroke="rgb(60, 60, 60)" stroke-width="1px" opacity="0.25"></line></g></g></g><g><g><line x1="0" y1="158.19555494520398" x2="268.2299995422363" y2="158.19555494520398" fill="rgb(0, 0, 0)" stroke="rgb(153, 153, 153)" stroke-width="1.5px"></line></g></g><g><g><line x1="29.803333282470703" y1="0" x2="29.803333282470703" y2="177.9699993133545" fill="rgb(0, 0, 0)" stroke="rgb(153, 153, 153)" stroke-width="1.5px"></line></g></g><g><g><g><g><g><path style="fill: none;" stroke="rgb(0, 153, 136)" stroke-width="2px" d="M33.08169994354248,158.19555494520398L36.06203327178955,158.19555494520398L39.04236660003662,158.19555494520398L42.02269992828369,158.19555494520398L45.00303325653076,158.19555494520398L47.983366584777826,158.19555494520398L50.963699913024904,158.19555494520398L53.94403324127197,158.19555494520398L56.924366569519044,158.19555494520398L59.904699897766115,158.19555494520398L62.885033226013185,118.64666709288954L65.86536655426025,98.87222316673233L68.84569988250732,79.09777924057508L71.82603321075439,98.87222316673233L74.80636653900147,98.87222316673233L77.78669986724853,158.19555494520398L80.7670331954956,98.87222316673233L83.74736652374268,118.64666709288954L86.72769985198974,138.42111101904678L89.70803318023681,98.87222316673233L92.68836650848388,98.87222316673233L95.66869983673097,158.19555494520398L98.64903316497802,59.323331631140576L101.62936649322509,118.64666709288954L104.60969982147218,39.54889138826064L107.59003314971923,79.09777924057508L110.5703664779663,59.323331631140576L113.55069980621339,98.87222316673233L116.53103313446046,98.87222316673233L119.51136646270751,19.774443778826136L122.49169979095458,59.323331631140576L125.47203311920167,98.87222316673233L128.45236644744872,98.87222316673233L131.4326997756958,158.19555494520398L134.41303310394287,98.87222316673233L137.39336643218994,59.323331631140576L140.373699760437,138.42111101904678L143.3540330886841,-79.09777216868274L146.33436641693115,59.323331631140576L149.31469974517822,79.09777924057508L152.29503307342532,98.87222316673233L155.27536640167236,118.64666709288954L158.25569972991943,98.87222316673233L161.23603305816653,19.774443778826136L164.21636638641357,118.64666709288954L167.19669971466064,118.64666709288954L170.17703304290774,19.774443778826136L173.15736637115478,79.09777924057508L176.13769969940185,79.09777924057508L179.11803302764892,98.87222316673233" fill="none"></path></g><g><path style="fill: none;" stroke="rgb(255, 112, 67)" stroke-width="2px" d="M33.08169994354248,158.19555494520398L36.06203327178955,158.19555494520398L39.04236660003662,158.19555494520398L42.02269992828369,158.19555494520398L45.00303325653076,158.19555494520398L47.983366584777826,158.19555494520398L50.963699913024904,158.19555494520398L53.94403324127197,138.42111101904678L56.924366569519044,79.09777924057508L59.904699897766115,118.64666709288954L62.885033226013185,138.42111101904678L65.86536655426025,138.42111101904678L68.84569988250732,138.42111101904678L71.82603321075439,138.42111101904678L74.80636653900147,158.19555494520398L77.78669986724853,118.64666709288954L80.7670331954956,138.42111101904678L83.74736652374268,138.42111101904678L86.72769985198974,158.19555494520398L89.70803318023681,118.64666709288954L92.68836650848388,158.19555494520398L95.66869983673097,158.19555494520398L98.64903316497802,158.19555494520398L101.62936649322509,138.42111101904678L104.60969982147218,138.42111101904678L107.59003314971923,138.42111101904678L110.5703664779663,158.19555494520398L113.55069980621339,138.42111101904678L116.53103313446046,158.19555494520398L119.51136646270751,79.09777924057508L122.49169979095458,118.64666709288954L125.47203311920167,138.42111101904678L128.45236644744872,138.42111101904678L131.4326997756958,118.64666709288954L134.41303310394287,158.19555494520398L137.39336643218994,138.42111101904678L140.373699760437,158.19555494520398L143.3540330886841,118.64666709288954L146.33436641693115,158.19555494520398L149.31469974517822,138.42111101904678L152.29503307342532,138.42111101904678L155.27536640167236,118.64666709288954L158.25569972991943,98.87222316673233L161.23603305816653,158.19555494520398L164.21636638641357,118.64666709288954L167.19669971466064,79.09777924057508L170.17703304290774,118.64666709288954L173.15736637115478,138.42111101904678L176.13769969940185,98.87222316673233L179.11803302764892,138.42111101904678L182.098366355896,118.64666709288954L185.07869968414306,79.09777924057508L188.05903301239013,138.42111101904678L191.0393663406372,118.64666709288954L194.0196996688843,118.64666709288954L197.00003299713134,138.42111101904678L199.9803663253784,118.64666709288954L202.9606996536255,118.64666709288954L205.94103298187255,98.87222316673233L208.92136631011962,118.64666709288954L211.90169963836672,138.42111101904678L214.88203296661376,118.64666709288954L217.86236629486083,118.64666709288954L220.8426996231079,118.64666709288954L223.82303295135497,98.87222316673233L226.80336627960205,118.64666709288954L229.78369960784912,118.64666709288954L232.76403293609619,79.09777924057508L235.74436626434328,98.87222316673233L238.72469959259033,98.87222316673233L241.7050329208374,158.19555494520398L244.6853662490845,118.64666709288954" fill="none"></path></g></g></g></g></g></g><g transform="translate(61, 177)" clip-path="url(#clip_1)"><clipPath id="clip_1"><rect width="268" height="22"></rect></clipPath><g><g><line x1="0" y1="0" x2="0" y2="5" style="visibility: inherit;" fill="rgb(0, 0, 0)" stroke="rgb(204, 204, 204)" stroke-width="1px"></line><line x1="29.803333282470703" y1="0" x2="29.803333282470703" y2="5" style="visibility: inherit;" fill="rgb(0, 0, 0)" stroke="rgb(204, 204, 204)" stroke-width="1px"></line><line x1="59.606666564941406" y1="0" x2="59.606666564941406" y2="5" style="visibility: inherit;" fill="rgb(0, 0, 0)" stroke="rgb(204, 204, 204)" stroke-width="1px"></line><line x1="89.40999984741211" y1="0" x2="89.40999984741211" y2="5" style="visibility: inherit;" fill="rgb(0, 0, 0)" stroke="rgb(204, 204, 204)" stroke-width="1px"></line><line x1="119.21333312988281" y1="0" x2="119.21333312988281" y2="5" style="visibility: inherit;" fill="rgb(0, 0, 0)" stroke="rgb(204, 204, 204)" stroke-width="1px"></line><line x1="149.01666641235352" y1="0" x2="149.01666641235352" y2="5" style="visibility: inherit;" fill="rgb(0, 0, 0)" stroke="rgb(204, 204, 204)" stroke-width="1px"></line><line x1="178.81999969482422" y1="0" x2="178.81999969482422" y2="5" style="visibility: inherit;" fill="rgb(0, 0, 0)" stroke="rgb(204, 204, 204)" stroke-width="1px"></line><line x1="208.62333297729492" y1="0" x2="208.62333297729492" y2="5" style="visibility: inherit;" fill="rgb(0, 0, 0)" stroke="rgb(204, 204, 204)" stroke-width="1px"></line><line x1="238.42666625976562" y1="0" x2="238.42666625976562" y2="5" style="visibility: inherit;" fill="rgb(0, 0, 0)" stroke="rgb(204, 204, 204)" stroke-width="1px"></line><line x1="268.2299995422363" y1="0" x2="268.2299995422363" y2="5" style="visibility: inherit;" fill="rgb(0, 0, 0)" stroke="rgb(204, 204, 204)" stroke-width="1px"></line></g><g transform="translate(0, 8)"><text style="text-anchor: middle; visibility: hidden; font-family: sans-serif, Roboto; font-size: 12px; font-weight: 200;" x="0" y="0" dx="0em" dy="0.95em" fill="rgb(50, 49, 63)" stroke="none" stroke-width="1px">-100</text><text style="text-anchor: middle; visibility: inherit; font-family: sans-serif, Roboto; font-size: 12px; font-weight: 200;" x="29.803333282470703" y="0" dx="0em" dy="0.95em" fill="rgb(50, 49, 63)" stroke="none" stroke-width="1px">0</text><text style="text-anchor: middle; visibility: inherit; font-family: sans-serif, Roboto; font-size: 12px; font-weight: 200;" x="59.606666564941406" y="0" dx="0em" dy="0.95em" fill="rgb(50, 49, 63)" stroke="none" stroke-width="1px">100</text><text style="text-anchor: middle; visibility: inherit; font-family: sans-serif, Roboto; font-size: 12px; font-weight: 200;" x="89.40999984741211" y="0" dx="0em" dy="0.95em" fill="rgb(50, 49, 63)" stroke="none" stroke-width="1px">200</text><text style="text-anchor: middle; visibility: inherit; font-family: sans-serif, Roboto; font-size: 12px; font-weight: 200;" x="119.21333312988281" y="0" dx="0em" dy="0.95em" fill="rgb(50, 49, 63)" stroke="none" stroke-width="1px">300</text><text style="text-anchor: middle; visibility: inherit; font-family: sans-serif, Roboto; font-size: 12px; font-weight: 200;" x="149.01666641235352" y="0" dx="0em" dy="0.95em" fill="rgb(50, 49, 63)" stroke="none" stroke-width="1px">400</text><text style="text-anchor: middle; visibility: inherit; font-family: sans-serif, Roboto; font-size: 12px; font-weight: 200;" x="178.81999969482422" y="0" dx="0em" dy="0.95em" fill="rgb(50, 49, 63)" stroke="none" stroke-width="1px">500</text><text style="text-anchor: middle; visibility: inherit; font-family: sans-serif, Roboto; font-size: 12px; font-weight: 200;" x="208.62333297729492" y="0" dx="0em" dy="0.95em" fill="rgb(50, 49, 63)" stroke="none" stroke-width="1px">600</text><text style="text-anchor: middle; visibility: inherit; font-family: sans-serif, Roboto; font-size: 12px; font-weight: 200;" x="238.42666625976562" y="0" dx="0em" dy="0.95em" fill="rgb(50, 49, 63)" stroke="none" stroke-width="1px">700</text><text style="text-anchor: middle; visibility: hidden; font-family: sans-serif, Roboto; font-size: 12px; font-weight: 200;" x="268.2299995422363" y="0" dx="0em" dy="0.95em" fill="rgb(50, 49, 63)" stroke="none" stroke-width="1px">800</text></g><line x1="0" y1="0" x2="268.2299995422363" y2="0" fill="rgb(0, 0, 0)" stroke="rgb(204, 204, 204)" stroke-width="1px"></line></g></g></g></g></svg>